<svg xmlns="http://www.w3.org/2000/svg" width="512" height="512" viewBox="0 0 512 512" version="1.1">
	<path d="M 233.169 17.033 C 190.989 21.110, 145.599 37.810, 110.248 62.259 C 74.814 86.765, 47.888 118.833, 30.280 157.500 C 26.025 166.845, 19 186.182, 19 188.551 C 19 189.305, 20.519 190.194, 22.413 190.550 C 29.004 191.786, 30 193.754, 30 205.539 C 30 217.237, 28.699 220, 23.191 220 C 17.263 220, 17.102 220.539, 15.988 244.109 C 14.107 283.898, 18.418 322.226, 29.040 360.146 C 35.816 384.338, 36.755 385.974, 43.905 386.046 L 48.500 386.093 56 396.215 C 64.779 408.063, 82.925 426.730, 95 436.335 C 138.460 470.904, 189.084 489.573, 245 491.653 C 306.153 493.927, 365.182 474.947, 411.493 438.121 C 424.164 428.045, 445.486 406.218, 454.666 393.924 C 461.229 385.136, 461.395 385, 465.582 385 C 469.671 385, 469.895 384.836, 471.413 380.750 C 474.288 373.011, 482.126 345.672, 484.576 334.838 C 487.654 321.226, 490.706 297.294, 491.569 280 C 492.249 266.357, 490.432 223.146, 489.119 221.759 C 488.733 221.351, 486.247 220.612, 483.594 220.117 C 475.891 218.677, 474.881 217.015, 474.820 205.661 C 474.760 194.667, 476.005 191.597, 480.966 190.507 C 484.969 189.628, 484.886 188.398, 479.913 174.882 C 467.375 140.811, 450.720 112.175, 430.976 90.746 C 410.479 68.501, 375.369 45.372, 342.573 32.510 C 327.614 26.644, 304.290 20.670, 288 18.533 C 272.824 16.542, 245.873 15.805, 233.169 17.033 M 223.907 30.515 C 182.121 36.219, 134.055 57.229, 100.033 84.661 C 76.283 103.811, 54.434 131.039, 42.354 156.541 C 37.507 166.773, 37.224 168.014, 39.750 167.968 C 40.923 167.947, 43.402 164.495, 47.269 157.496 C 58.904 136.437, 83.690 107.612, 105 90.356 C 140.297 61.773, 186.942 41.997, 230.993 36.938 C 244.028 35.440, 274.898 36.244, 287.613 38.411 C 311.085 42.412, 331.047 49.052, 355.500 60.993 C 384.926 75.362, 410.058 93.660, 429.338 114.750 C 433.079 118.843, 434.796 120, 437.127 120 L 440.117 120 435.388 113.750 C 428.754 104.983, 411.069 87.596, 401.117 80.057 C 380.795 64.664, 351.596 48.940, 328.848 41.140 C 314.984 36.386, 298.289 32.517, 282.862 30.482 C 269.070 28.663, 237.348 28.681, 223.907 30.515 M 236.500 46.045 C 202.561 48.288, 161.950 62.167, 132 81.757 C 116.672 91.783, 102.310 103.712, 87.227 118.946 C 76.941 129.335, 73.244 133.799, 70.960 138.584 C 68.356 144.041, 67.592 144.854, 64.534 145.428 C 62.626 145.786, 60.429 146.714, 59.651 147.491 C 58.377 148.766, 54.556 162.889, 55.287 163.620 C 55.454 163.787, 58.495 163.548, 62.045 163.089 C 65.595 162.629, 67.503 162.197, 66.285 162.127 C 63.198 161.950, 61.846 158.837, 62.199 152.720 C 62.498 147.538, 62.525 147.498, 66 147.230 C 73.492 146.652, 73.866 146.379, 74.195 141.245 L 74.500 136.500 96.750 136.231 L 119 135.962 119 140.921 L 119 145.879 122.750 146.190 L 126.500 146.500 126.793 153.720 C 127.078 160.724, 127.010 160.959, 124.543 161.579 C 119.879 162.749, 121.923 164, 128.500 164 C 135.269 164, 136.135 163.550, 133.324 161.495 C 131.261 159.986, 130.131 148.469, 131.874 146.726 C 132.493 146.107, 133 143.713, 133 141.407 C 133 138.506, 133.487 137.027, 134.582 136.607 C 136.646 135.815, 184.354 135.815, 186.418 136.607 C 187.733 137.112, 188 139.146, 188 148.673 C 188 154.975, 187.558 160.957, 187.018 161.966 C 186.280 163.346, 186.426 163.949, 187.609 164.403 C 188.473 164.735, 189.590 164.753, 190.090 164.444 C 190.595 164.132, 191 153.301, 191 140.094 L 191 116.306 200.994 108.403 L 210.988 100.500 253.244 99.966 C 284.562 99.570, 296.277 99.738, 298.500 100.617 C 302.806 102.318, 317.918 114.654, 318.915 117.282 C 319.378 118.502, 319.530 121.862, 319.251 124.750 C 318.973 127.638, 319.101 130, 319.535 130 C 319.969 130, 322.276 128.856, 324.662 127.458 C 327.913 125.553, 329 124.300, 329 122.458 L 329 120 368.750 119.876 C 390.613 119.807, 411.615 119.470, 415.421 119.126 L 422.343 118.500 414.512 111.196 C 387.974 86.442, 343.634 61.821, 308.804 52.500 C 287.364 46.763, 261.107 44.418, 236.500 46.045 M 214.159 111.995 C 212.321 112.429, 209.354 114.203, 207.566 115.936 L 204.314 119.088 203.634 142.600 C 203.125 160.162, 203.269 167.174, 204.199 170.306 C 205.667 175.247, 213.466 183.577, 217.596 184.613 C 219.139 185.001, 225.505 184.465, 231.935 183.406 C 247.590 180.829, 269.012 181.006, 281.500 183.815 L 290.500 185.839 295.801 183.321 C 299.386 181.618, 301.976 179.484, 303.801 176.727 L 306.500 172.652 306.797 146.914 L 307.094 121.176 303.898 117.537 C 298.006 110.826, 299.214 110.989, 256.300 111.102 C 234.960 111.159, 215.996 111.560, 214.159 111.995 M 244.284 117.918 C 218.054 118.441, 214.886 118.682, 213.284 120.284 C 211.702 121.865, 211.465 124.526, 211.193 143.741 C 210.858 167.412, 211.504 171.307, 216.555 176.052 C 219.505 178.823, 220.383 178.859, 242.500 177.110 C 256.017 176.041, 260.906 176.074, 274 177.323 C 291.679 179.010, 293.637 178.560, 297.137 172.016 C 298.797 168.910, 299 166.061, 299 145.821 C 299 123.323, 298.978 123.086, 296.612 120.335 C 294.301 117.649, 293.888 117.555, 283.862 117.448 C 278.163 117.387, 260.353 117.598, 244.284 117.918 M 221.250 125.098 C 219.016 125.930, 219 126.080, 219 146.745 C 219 163.961, 219.269 167.939, 220.557 169.777 C 222.113 171.999, 222.132 172, 255.522 172 C 287.741 172, 288.967 171.930, 289.984 170.029 C 290.657 168.773, 290.941 160.161, 290.770 146.279 C 290.501 124.547, 290.495 124.499, 288.250 124.180 L 286 123.861 286 141.976 C 286 159.732, 285.953 160.138, 283.615 162.476 C 279.617 166.474, 273.976 167.500, 256 167.500 C 242.764 167.500, 238.493 167.148, 234.409 165.722 C 225.862 162.738, 225.017 161.406, 224.894 150.711 C 224.836 145.645, 224.498 137.621, 224.144 132.880 C 223.515 124.465, 223.447 124.280, 221.250 125.098 M 417 145.383 C 417 166.473, 417.879 164.819, 406.500 165.144 L 400.500 165.315 407.500 166.033 C 411.350 166.428, 419.980 166.807, 426.677 166.876 C 438.820 167, 438.861 166.992, 441.008 164.263 C 442.975 161.762, 443.132 160.556, 442.830 150.288 C 442.425 136.511, 442.329 136.386, 427.941 130.930 C 422.241 128.768, 417.447 127, 417.289 127 C 417.130 127, 417 135.273, 417 145.383 M 334.580 134.006 C 328.575 136.715, 323.294 139.509, 322.846 140.215 C 322.397 140.922, 322.024 146.530, 322.015 152.679 C 321.994 168.318, 320.593 167.470, 344.966 166.559 C 355.710 166.157, 368.100 165.491, 372.500 165.080 L 380.500 164.331 373.404 164.166 C 369.501 164.075, 362.188 163.708, 357.154 163.350 L 348 162.701 348 145.850 C 348 133.015, 347.702 129.010, 346.750 129.040 C 346.063 129.063, 340.586 131.297, 334.580 134.006 M 234.733 132.750 C 232.809 134.884, 231.562 139.483, 232.497 140.995 C 233.089 141.954, 234.843 139.720, 239.362 132.250 C 240.549 130.288, 236.564 130.718, 234.733 132.750 M 273 132.550 C 273 133.776, 275.970 138.731, 277.434 139.945 C 278.749 141.037, 279 140.977, 279 139.573 C 279 136.887, 276.080 132, 274.474 132 C 273.663 132, 273 132.247, 273 132.550 M 247.277 135.973 C 239.037 140.997, 244.101 151, 254.885 151 C 266.051 151, 271.554 143.400, 265.077 136.923 C 262.514 134.360, 261.436 134, 256.327 134.004 C 252.300 134.006, 249.505 134.614, 247.277 135.973 M 379.455 137.455 C 374.449 142.460, 377.356 151, 384.066 151 C 388.291 151, 390.612 149.551, 391.787 146.182 C 394.809 137.513, 385.783 131.126, 379.455 137.455 M 450 143.129 C 450 145.338, 457.426 163.554, 459.223 165.750 C 460.411 167.203, 461.023 167.272, 462.785 166.154 C 464.955 164.777, 454.115 141, 451.316 141 C 450.592 141, 450 141.958, 450 143.129 M 83.580 153.750 C 82.783 156.259, 80 156.842, 80 154.500 C 80 152.194, 78.311 152.722, 77.600 155.250 C 77.004 157.368, 76.887 157.396, 75.602 155.721 C 74.385 154.135, 74.170 154.114, 73.625 155.534 C 73.289 156.410, 72.561 156.847, 72.007 156.504 C 71.453 156.162, 71 156.535, 71 157.334 C 71 158.133, 71.712 159.059, 72.582 159.393 C 74.544 160.146, 112.013 158.908, 111.965 158.092 C 111.945 157.766, 111.286 156.375, 110.500 155 C 109.089 152.532, 109.070 152.528, 109.035 154.750 C 108.994 157.363, 106.533 157.774, 105.199 155.391 C 104.439 154.033, 104.211 154.008, 103.742 155.231 C 102.905 157.412, 97.449 156.276, 96.165 153.653 L 95.110 151.500 94.439 153.750 C 93.690 156.258, 91 156.845, 91 154.500 C 91 153.675, 90.550 153, 90 153 C 89.450 153, 89 153.675, 89 154.500 C 89 156.801, 86.431 156.280, 85.301 153.750 L 84.295 151.500 83.580 153.750 M 113 157.059 C 113 157.641, 113.450 157.840, 114 157.500 C 114.550 157.160, 115 156.684, 115 156.441 C 115 156.198, 114.550 156, 114 156 C 113.450 156, 113 156.477, 113 157.059 M 231 157.048 C 231 157.423, 231.930 158.912, 233.066 160.356 C 236.027 164.121, 244.438 166.328, 256 166.374 C 266.822 166.417, 274.332 164.405, 278.027 160.471 C 281.646 156.619, 279.737 156.512, 272.341 160.153 C 265.992 163.278, 264.874 163.500, 255.458 163.500 C 245.906 163.500, 244.993 163.312, 238.187 159.933 C 234.234 157.971, 231 156.673, 231 157.048 M 336.523 171.964 C 336.195 172.493, 336.843 173.843, 337.964 174.964 C 339.947 176.947, 341.083 177, 381.943 177 C 423.806 177, 423.889 176.996, 425.402 174.837 C 426.235 173.647, 426.684 172.297, 426.399 171.837 C 425.659 170.639, 337.265 170.763, 336.523 171.964 M 466 195.500 C 466 208.333, 466.099 209, 468 209 C 469.885 209, 470 208.333, 470 197.434 C 470 186.456, 469.124 182, 466.965 182 C 466.393 182, 466 187.495, 466 195.500 M 33.887 185.750 C 32.763 188.655, 33.048 208.381, 34.230 209.563 C 34.606 209.939, 35.608 209.981, 36.457 209.655 C 37.723 209.169, 38 207.010, 38 197.613 C 38 191.316, 37.727 185.452, 37.393 184.582 C 36.481 182.204, 35.077 182.672, 33.887 185.750 M 332.250 192.673 C 317.262 192.870, 305.029 193.362, 305.065 193.766 C 305.101 194.170, 308.980 196.975, 313.686 200 C 318.392 203.025, 325.338 208.355, 329.121 211.844 C 332.905 215.333, 336 217.882, 336 217.508 C 336 217.135, 333.413 214.402, 330.250 211.436 L 324.500 206.044 371.059 206.022 C 407.832 206.005, 417.994 205.725, 419.409 204.690 C 421.613 203.079, 421.843 196.415, 419.767 194.339 C 418.143 192.714, 381.693 192.020, 332.250 192.673 M 67.655 194.829 C 65.422 197.297, 65.553 202.286, 67.908 204.417 C 69.678 206.019, 74.043 206.120, 128.408 205.822 C 160.634 205.645, 187.001 205.757, 187 206.072 C 187 206.387, 184.302 209.762, 181.003 213.572 C 176.518 218.755, 175.012 221.256, 175.025 223.500 C 175.043 226.365, 175.134 226.300, 177.060 222.056 C 179.522 216.629, 193.339 202.882, 201.240 198 C 204.355 196.075, 206.926 194.162, 206.952 193.750 C 206.978 193.338, 176.020 193, 138.155 193 C 72.729 193, 69.228 193.091, 67.655 194.829 M 235.834 196.501 C 217.135 200.045, 199.423 209.468, 182.932 224.649 C 171.789 234.906, 166.209 239.148, 165.459 237.933 C 165.076 237.314, 165.040 234.264, 165.379 231.154 C 165.754 227.707, 165.573 224.915, 164.916 224 C 164.083 222.840, 163.977 223.133, 164.448 225.290 C 164.833 227.049, 164.348 229.686, 163.135 232.427 C 160.805 237.694, 156.637 239.466, 148.220 238.768 C 143.491 238.376, 142.226 237.817, 139.722 235.015 C 137.026 231.998, 136.815 231.230, 137.204 225.852 C 137.438 222.624, 137.269 220.549, 136.830 221.241 C 136.390 221.934, 136.024 224.828, 136.015 227.673 C 135.988 236.837, 142.715 241.825, 153.585 240.703 C 163.006 239.731, 164.760 241.421, 161.469 248.300 C 160.022 251.324, 160.118 251.280, 163.219 247.500 C 169.062 240.377, 188.331 221.910, 194.648 217.379 C 202.946 211.428, 217.653 204.620, 228 201.941 C 238.665 199.179, 258.769 198.219, 269.773 199.945 C 279.232 201.429, 299.035 207.929, 299.747 209.782 C 300.822 212.585, 298.258 213.320, 295.143 211.102 C 284.406 203.456, 253.673 199.600, 233.838 203.409 C 213.938 207.231, 195.391 217.385, 180.761 232.466 C 174.918 238.490, 174.196 239.625, 175.426 240.855 C 176.656 242.085, 177.630 241.434, 182.622 236.042 C 200.709 216.505, 234.015 204.934, 263.378 207.985 C 282.298 209.951, 299.015 216.174, 316.014 227.579 C 319.638 230.010, 322.918 232, 323.302 232 C 323.686 232, 324 231.126, 324 230.057 C 324 228.988, 324.985 227.423, 326.190 226.580 C 327.394 225.736, 328.181 224.892, 327.940 224.704 C 309.412 210.308, 294.236 201.934, 279.500 197.975 C 268.978 195.148, 246.907 194.403, 235.834 196.501 M 304.644 214.485 C 303.951 216.292, 307.530 218.569, 308.528 216.955 C 309.467 215.436, 308.303 213, 306.638 213 C 305.855 213, 304.958 213.668, 304.644 214.485 M 445.763 214.565 C 438 218.778, 437.069 233.859, 444.153 240.646 C 446.450 242.848, 447.978 243.440, 451.140 243.358 C 461.452 243.087, 467.015 231.241, 462.010 220.212 C 459.087 213.772, 451.856 211.259, 445.763 214.565 M 311.446 218.087 C 310.773 219.176, 312.705 222, 314.122 222 C 314.605 222, 315 221.148, 315 220.107 C 315 217.999, 312.410 216.527, 311.446 218.087 M 337.001 219.027 C 337 219.318, 337.701 220.555, 338.557 221.777 C 339.965 223.787, 340.954 224, 348.902 224 C 359.034 224, 359.754 224.460, 362.413 232.633 C 364.327 238.517, 365.432 239, 376.970 239 C 385.139 239, 386.022 239.773, 389.490 249.971 C 398.379 276.104, 396.419 306.177, 384.683 323.738 C 382.156 327.519, 379.964 329.268, 374.047 332.225 L 366.594 335.951 363.457 344.975 L 360.320 354 386.410 354.183 C 417.473 354.401, 417.007 354.422, 418.657 352.772 C 419.700 351.729, 419.972 338.419, 420.022 286.076 C 420.059 246.300, 419.713 220.313, 419.139 219.739 C 418.160 218.760, 337.002 218.058, 337.001 219.027 M 69.571 220.571 C 68.178 221.965, 68 228.958, 68 282.446 C 68 315.613, 67.722 344.138, 67.383 345.835 C 66.873 348.386, 67.292 349.446, 69.806 351.960 L 72.846 355 86.489 355 C 99.620 355, 103.426 354.310, 105.235 351.600 C 105.639 350.995, 105.976 322.017, 105.985 287.205 L 106 223.909 103.545 221.455 C 101.158 219.067, 100.682 219, 86.117 219 C 73.837 219, 70.860 219.283, 69.571 220.571 M 146.223 220.557 C 143.081 222.757, 143.198 228.289, 146.455 231.545 C 149.453 234.544, 151.905 234.649, 155.365 231.927 C 162.674 226.179, 153.855 215.211, 146.223 220.557 M 446.667 221.816 C 440.816 228.281, 447.231 239.218, 454.989 236.005 C 458.923 234.375, 460.542 230.173, 459.017 225.551 C 458.369 223.590, 457.005 221.538, 455.986 220.992 C 453.059 219.426, 448.462 219.832, 446.667 221.816 M 318 223.893 C 318 226.004, 320.590 227.472, 321.557 225.908 C 322.497 224.387, 321.260 222, 319.531 222 C 318.689 222, 318 222.852, 318 223.893 M 235.500 224.417 C 222.465 227.371, 206 235.515, 206 239.008 C 206 239.482, 209.434 238.283, 213.631 236.344 C 239.448 224.416, 269.557 224.534, 296.099 236.667 C 304.260 240.397, 307.111 240.565, 302.892 237.067 C 298.772 233.651, 289.831 229.309, 281 226.434 C 273.473 223.983, 270.726 223.632, 257 223.362 C 246.510 223.156, 239.561 223.497, 235.500 224.417 M 337.008 234.750 C 337.013 236.701, 339.384 240.406, 345.167 247.500 C 356.063 260.866, 364.204 278.982, 366.910 295.882 C 367.472 299.393, 368.127 302.461, 368.366 302.700 C 368.606 302.939, 369.101 301.361, 369.467 299.193 C 370.331 294.083, 368.645 284.988, 364.826 274.157 C 361.032 263.396, 358.251 257.824, 351.276 247 C 342.482 233.353, 336.991 228.638, 337.008 234.750 M 237.734 234.584 C 218.183 238.118, 200.463 248.392, 186 264.579 C 180.253 271.011, 173.326 281.659, 174.272 282.605 C 174.575 282.908, 176.757 280.536, 179.123 277.334 C 184.735 269.737, 187.771 267, 190.587 267 C 193.267 267, 195.033 269.156, 192.927 269.856 C 188.653 271.276, 180.604 283.988, 176.178 296.310 C 173.772 303.007, 173.592 304.734, 173.547 321.500 C 173.505 337.665, 173.739 340.260, 175.842 346.957 C 183.009 369.780, 196.608 385.805, 217.500 396.045 C 242.211 408.156, 267.590 408.643, 291.773 397.469 C 314.429 387.002, 330.644 367.688, 337.084 343.500 C 340.368 331.166, 340.158 313.437, 336.587 301.562 C 333.161 290.166, 325.827 275.933, 321.362 272.013 C 318.005 269.065, 317.654 267, 320.512 267 C 321.279 267, 323.352 268.800, 325.120 271 C 328.378 275.054, 331 276.192, 331 273.552 C 331 271.503, 322.228 261.214, 316.123 256.103 C 303.907 245.875, 285.594 237.272, 270 234.434 C 260.538 232.713, 247.755 232.772, 237.734 234.584 M 29.335 244.750 C 27.960 257.508, 28.561 290.195, 30.429 304.219 C 32.154 317.169, 38.394 350.727, 39.234 351.567 C 40.018 352.351, 41.182 254.495, 40.437 250.376 C 39.557 245.508, 38.428 243.221, 35.191 239.750 C 31.140 235.407, 30.261 236.158, 29.335 244.750 M 329.500 240 C 328.694 241.305, 329.770 243, 331.404 243 C 332.111 243, 333.505 242.100, 334.500 241 C 336.273 239.041, 336.247 239, 333.214 239 C 331.511 239, 329.840 239.450, 329.500 240 M 475.465 240.040 C 474.962 240.843, 474.518 256.575, 474.477 275 C 474.433 295.179, 473.890 313.113, 473.112 320.101 C 471.138 337.843, 472.245 338.452, 474.749 321 C 478.398 295.563, 479.308 281.907, 478.646 262.500 C 478.005 243.692, 477.114 237.402, 475.465 240.040 M 242.831 243.955 C 225.345 247.162, 209.608 255.463, 197.888 267.660 C 185.538 280.513, 179.002 294.158, 175.539 314.320 L 174.883 318.140 179.455 317.454 C 182.339 317.022, 185.128 317.225, 187.007 318.003 C 190.181 319.317, 190.549 320.250, 192.931 333 C 194.791 342.962, 199.935 352.658, 207.850 361.124 C 215.843 369.674, 224.179 374.964, 235.500 378.671 C 246.621 382.312, 262.837 382.525, 274.455 379.183 C 290.458 374.578, 303.451 365.523, 311.181 353.587 C 316.502 345.371, 321.018 330.754, 321.713 319.500 C 322.241 310.952, 323.122 308, 325.145 308 C 325.640 308, 328.020 309.821, 330.435 312.046 C 333.244 314.636, 335.073 315.691, 335.515 314.975 C 337.425 311.885, 331.794 293.323, 325.923 283.359 C 319.252 272.037, 301.990 257.044, 288.673 251.006 C 274.653 244.649, 255.285 241.670, 242.831 243.955 M 369 260.443 L 369 272 373.389 272 C 377.567 272, 377.802 271.844, 378.294 268.750 C 378.579 266.962, 378.516 261.900, 378.156 257.500 L 377.500 249.500 373.250 249.193 L 369 248.885 369 260.443 M 164.040 260.452 C 161.958 262.961, 163.195 265.500, 166.500 265.500 C 168.566 265.500, 169.578 264.952, 169.819 263.702 C 170.216 261.640, 168.352 259, 166.500 259 C 165.810 259, 164.703 259.653, 164.040 260.452 M 344.040 260.452 C 341.987 262.925, 343.194 265.500, 346.405 265.500 C 349.990 265.500, 351.959 262.860, 350.070 260.584 C 348.427 258.605, 345.624 258.544, 344.040 260.452 M 153.608 264.250 C 150.404 269.747, 146.451 281.664, 144.944 290.364 C 143.162 300.654, 144.238 323.441, 147.001 333.904 C 150.944 348.835, 159.484 365.983, 169.385 378.850 L 174.077 384.949 121.121 385.224 C 91.996 385.376, 67.841 385.825, 67.443 386.223 C 66.424 387.243, 70.995 392.995, 81.472 403.876 C 113.654 437.299, 153.822 459.781, 202.366 471.542 C 232.195 478.769, 267.487 479.452, 298.500 473.403 C 350.305 463.298, 398.757 436.317, 430.599 399.841 C 440.500 388.500, 440.770 388.036, 438.449 386.339 C 436.978 385.264, 427.005 385, 387.809 385 C 360.964 385, 339 384.756, 339 384.457 C 339 384.158, 340.757 381.571, 342.904 378.707 C 351.403 367.371, 360.061 346.876, 359.950 338.352 C 359.905 334.889, 359.567 335.416, 356.604 343.573 C 349.166 364.050, 341.336 376.778, 328.110 389.891 C 313.658 404.220, 299.109 412.700, 280.491 417.648 C 271.824 419.951, 268.512 420.306, 255.500 420.326 C 239.082 420.352, 232.801 419.262, 219.254 414.038 C 206.847 409.253, 195.613 401.726, 184.955 391.056 C 174.052 380.142, 166.910 370.150, 159.919 356.032 C 145.737 327.390, 144.263 294.741, 155.952 268.108 C 159.464 260.109, 159.485 260, 157.542 260 C 156.740 260, 154.970 261.913, 153.608 264.250 M 384.152 279.809 C 384.053 291.131, 384.346 296.904, 385 296.500 C 386.134 295.799, 386.156 278.964, 385.036 269 C 384.479 264.048, 384.269 266.624, 384.152 279.809 M 243.112 274.518 C 225.637 279.421, 212.139 293.448, 209.008 309.960 C 205.918 326.252, 210.133 340.259, 221.583 351.747 C 231.987 362.186, 243.990 366.580, 260.012 365.814 C 267.301 365.465, 269.764 364.859, 276.084 361.858 C 290.305 355.104, 300.152 343.192, 303.062 329.219 C 304.611 321.787, 303.689 308.834, 301.132 302.106 C 296.838 290.803, 286.323 280.941, 273.236 275.942 C 265.714 273.069, 250.792 272.363, 243.112 274.518 M 243.754 277.084 C 231.863 279.887, 220.004 289.548, 214.693 300.759 C 211.654 307.175, 211.500 308.079, 211.500 319.500 C 211.500 331.158, 211.597 331.693, 214.910 338.296 C 219.224 346.894, 226.961 354.118, 236.940 358.864 C 250.974 365.539, 267.729 364.164, 281.542 355.204 C 296.747 345.341, 303.936 329.409, 301.010 312.060 C 298.082 294.697, 287.238 283.002, 269.068 277.612 C 263.209 275.873, 250.053 275.599, 243.754 277.084 M 307.635 282.073 C 305.490 283.760, 305 284.977, 305 288.618 C 305 294.421, 308.243 298, 313.500 298 C 315.979 298, 317.851 297.240, 319.545 295.545 C 322.441 292.650, 322.483 292.247, 320.415 287.080 C 317.710 280.319, 312.473 278.267, 307.635 282.073 M 338.470 286.250 C 340.380 292.104, 344.968 310.493, 345.509 314.460 C 346.066 318.542, 346.367 319.096, 347.209 317.592 C 349.161 314.103, 345.620 296.024, 341.363 287.750 C 339.962 285.025, 337.686 283.845, 338.470 286.250 M 247.223 287.552 C 241.591 289.068, 232.915 294.187, 229.299 298.127 C 225.014 302.795, 222.601 309.930, 222.563 318.048 C 222.472 336.956, 236.853 350.500, 257.021 350.500 C 263.503 350.500, 265.465 350.046, 271.218 347.213 C 283.426 341.204, 289.390 331.449, 289.387 317.500 C 289.385 308.318, 287.929 304.377, 282.503 298.874 C 277.104 293.398, 270.388 289.597, 262.465 287.533 C 255.441 285.703, 254.084 285.705, 247.223 287.552 M 252.564 296.207 C 247.683 297.248, 242.726 300.945, 239.328 306.081 C 235.273 312.207, 231.040 310.928, 230.952 303.550 L 230.904 299.500 227.765 305.500 C 219.584 321.139, 226.859 339.460, 243.921 346.182 C 259.334 352.256, 277.429 345.813, 284.433 331.759 C 286.573 327.465, 286.991 325.267, 286.944 318.554 C 286.907 313.198, 286.280 309, 285.073 306.023 L 283.259 301.546 282.577 304.647 C 281.758 308.379, 277.689 312.478, 275.600 311.677 C 274.775 311.360, 273.123 308.831, 271.930 306.058 C 268.620 298.364, 260.888 294.431, 252.564 296.207 M 471.079 338.583 C 471.127 339.748, 471.364 339.985, 471.683 339.188 C 471.972 338.466, 471.936 337.603, 471.604 337.271 C 471.272 336.939, 471.036 337.529, 471.079 338.583" stroke="none" fill="black" fill-rule="evenodd"/>
</svg>